<?xml version="1.0" encoding="UTF-8"?>
<svg id="Capa_2" data-name="Capa 2" xmlns="http://www.w3.org/2000/svg" viewBox="0 0 807.8 1031.05">
  <defs>
    <style>
      .cls-1 {
        fill: #a28946;
      }
    </style>
  </defs>
  <g id="Capa_1-2" data-name="Capa 1">
    <g>
      <polygon class="cls-1" points="0 944.8 23.79 944.8 23.79 873.43 71.28 873.43 71.28 897.22 47.52 897.22 47.52 921.01 95.03 921.01 95.03 849.64 0 849.64 0 944.8"/>
      <path class="cls-1" d="M118.79,944.8h23.76v-23.79h47.52v23.79h23.76v-95.16h-95.04v95.16ZM142.55,873.43h47.52v23.79h-47.52v-23.79Z"/>
      <path class="cls-1" d="M475.18,944.81h23.76v-23.79h47.52v23.79h23.76v-95.16h-95.03v95.16ZM498.93,873.44h47.52v23.79h-47.52v-23.79Z"/>
      <path class="cls-1" d="M712.76,944.81h23.76v-23.79h47.52v23.79h23.76v-95.16h-95.04v95.16ZM736.52,873.44h47.52v23.79h-47.52v-23.79Z"/>
      <polygon class="cls-1" points="237.59 921.01 237.59 944.8 332.62 944.8 332.62 885.32 261.35 885.32 261.35 873.43 332.62 873.43 332.62 849.64 237.59 849.64 237.59 909.11 308.86 909.11 308.86 921.01 237.59 921.01"/>
      <polygon class="cls-1" points="356.38 944.81 451.42 944.81 451.42 920.99 380.14 921 380.14 873.44 451.42 873.43 451.42 849.66 356.38 849.66 356.38 944.81"/>
      <polygon class="cls-1" points="593.97 944.8 617.73 944.8 617.73 873.43 665.25 873.44 665.25 944.81 689 944.8 689 849.64 593.97 849.64 593.97 944.8"/>
      <polygon class="cls-1" points="262.73 1007.79 219.28 1007.79 219.28 987.78 216.04 987.78 216.04 1031.05 219.28 1031.05 219.28 1011.03 262.73 1011.03 262.73 1031.05 265.97 1031.05 265.97 987.78 262.73 987.78 262.73 1007.79"/>
      <path class="cls-1" d="M314.19,1031.05h32.4v-29.92h-32.4v29.92ZM317.62,1004.36h25.54v23.44h-25.54v-23.44Z"/>
      <polygon class="cls-1" points="398.32 987.78 394.89 987.78 394.89 1031.05 427.29 1031.05 427.29 1027.81 398.32 1027.81 398.32 1004.36 427.29 1004.36 427.29 1001.12 398.32 1001.12 398.32 987.78"/>
      <polygon class="cls-1" points="475.12 1031.05 507.52 1031.05 507.52 1027.81 478.55 1027.81 478.55 1004.36 504.09 1004.36 504.09 1016.08 507.52 1016.08 507.52 1001.12 475.12 1001.12 475.12 1031.05"/>
      <rect class="cls-1" x="555.74" y="987.78" width="3.43" height="43.26"/>
      <polygon class="cls-1" points="722.9 170.14 467.7 170.14 467.7 127.6 722.9 127.6 722.9 85.07 425.15 85.07 425.15 212.67 722.9 212.67 722.9 170.14"/>
      <polygon class="cls-1" points="722.9 255.2 425.17 255.19 425.17 297.74 680.44 297.74 680.44 340.27 425.15 340.27 425.15 382.81 722.9 382.81 722.9 255.2"/>
      <polygon class="cls-1" points="382.63 595.48 169.96 595.48 169.96 638.01 340.1 638.01 340.1 680.55 127.43 680.55 127.43 467.88 340.1 467.88 340.1 510.41 169.96 510.4 169.96 552.94 382.63 552.94 382.63 425.34 84.89 425.34 84.89 723.08 382.63 723.08 382.63 595.48"/>
      <path class="cls-1" d="M0,0v807.1h807.8V0H0ZM765.26,764.57H42.53V42.53h722.73v722.04Z"/>
      <polygon class="cls-1" points="425.17 723.08 467.7 723.08 467.7 467.88 680.37 467.88 680.37 723.08 722.9 723.08 722.9 425.34 425.17 425.34 425.17 723.08"/>
      <polygon class="cls-1" points="510.23 723.08 552.77 723.08 552.77 552.94 595.3 552.94 595.3 723.08 637.84 723.08 637.84 510.41 510.23 510.41 510.23 723.08"/>
      <polygon class="cls-1" points="255.09 382.81 297.56 382.81 297.56 340.27 340.12 340.27 340.12 382.81 382.63 382.81 382.63 297.74 255.09 297.74 255.09 382.81"/>
      <polygon class="cls-1" points="127.43 127.6 340.1 127.6 340.1 212.67 170.06 212.67 169.96 382.81 212.5 382.81 212.5 255.2 382.63 255.2 382.63 85.07 84.89 85.07 84.89 382.81 127.43 382.81 127.43 127.6"/>
    </g>
  </g>
</svg>