<?xml version="1.0" encoding="UTF-8"?>
<svg id="Capa_2" data-name="Capa 2" xmlns="http://www.w3.org/2000/svg" viewBox="0 0 85.26 1287.45">
  <defs>
    <style>
      .cls-1 {
        fill: #a28946;
      }
    </style>
  </defs>
  <g id="Capa_1-2" data-name="Capa 1">
    <g>
      <polygon class="cls-1" points="0 282.73 0 292.83 15.14 292.83 15.14 282.73 10.1 282.73 10.1 287.78 5.05 287.78 5.05 282.73 0 282.73"/>
      <polygon class="cls-1" points="35.35 282.73 30.3 282.73 30.3 313.03 5.05 313.03 5.05 302.93 25.24 302.93 25.25 282.73 20.2 282.73 20.2 297.88 0 297.88 0 318.08 35.35 318.08 35.35 282.73"/>
      <polygon class="cls-1" points="35.35 60.59 0 60.59 0 65.63 30.3 65.63 30.3 70.68 0 70.68 0 75.73 35.35 75.73 35.35 60.59"/>
      <polygon class="cls-1" points="35.34 50.49 5.04 50.49 5.04 45.44 35.35 45.44 35.35 40.39 0 40.39 0 55.54 35.34 55.54 35.34 50.49"/>
      <polygon class="cls-1" points="25.25 106.02 25.25 100.98 0 100.98 0 116.12 35.35 116.12 35.35 80.78 0 80.78 0 95.93 25.25 95.93 25.25 90.88 5.05 90.88 5.05 85.83 30.3 85.83 30.3 111.07 5.05 111.07 5.05 106.02 25.25 106.02"/>
      <polygon class="cls-1" points="35.34 0 30.3 0 30.3 30.29 5.05 30.29 5.05 0 0 0 0 35.34 35.34 35.34 35.34 0"/>
      <polygon class="cls-1" points="25.25 0 20.2 0 20.2 20.19 15.15 20.19 15.15 0 10.1 0 10.1 25.24 25.25 25.24 25.25 0"/>
      <polygon class="cls-1" points="35.35 207 35.35 201.95 0 201.95 0 217.1 35.35 217.1 35.35 212.05 5.05 212.05 5.05 207 35.35 207"/>
      <polygon class="cls-1" points="35.35 222.15 0 222.15 0 227.2 30.31 227.2 30.31 232.25 0 232.25 0 237.29 35.35 237.29 35.35 222.15"/>
      <polygon class="cls-1" points="10.1 171.66 10.1 176.71 35.35 176.71 35.35 161.56 0 161.56 0 196.9 35.35 196.9 35.35 181.76 10.1 181.76 10.1 186.81 30.3 186.81 30.3 191.85 5.05 191.85 5.05 166.61 30.3 166.61 30.3 171.66 10.1 171.66"/>
      <polygon class="cls-1" points="35.35 242.34 0 242.34 0 277.68 5.05 277.68 5.05 247.39 30.3 247.39 30.3 277.68 35.35 277.68 35.35 242.34"/>
      <polygon class="cls-1" points="25.25 277.68 25.25 252.44 10.1 252.44 10.1 277.68 15.15 277.68 15.15 257.49 20.2 257.49 20.2 277.68 25.25 277.68"/>
      <polygon class="cls-1" points="35.35 146.42 20.21 146.42 20.21 156.51 25.25 156.51 25.25 151.46 30.3 151.46 30.3 156.51 35.35 156.51 35.35 146.42"/>
      <polygon class="cls-1" points="35.35 121.17 0 121.17 0 156.51 5.05 156.51 5.05 126.22 30.3 126.22 30.3 136.32 10.11 136.32 10.1 156.51 15.15 156.51 15.15 141.37 35.35 141.37 35.35 121.17"/>
      <polygon class="cls-1" points="35.35 383.71 0 383.71 0 388.76 30.29 388.76 30.29 393.81 0 393.81 0 398.85 35.35 398.85 35.35 383.71"/>
      <polygon class="cls-1" points="35.35 368.56 35.35 363.51 0 363.51 0 378.66 35.34 378.66 35.34 373.61 5.04 373.61 5.04 368.56 35.35 368.56"/>
      <polygon class="cls-1" points="35.35 403.9 0 403.9 0 419.05 25.25 419.05 25.25 414 5.05 414 5.05 408.95 30.3 408.95 30.3 434.2 5.05 434.2 5.05 429.15 25.25 429.15 25.25 424.1 0 424.1 0 439.25 35.35 439.25 35.35 403.9"/>
      <polygon class="cls-1" points="5.05 323.12 0 323.12 0 358.47 35.34 358.47 35.34 323.12 30.29 323.12 30.29 353.42 5.05 353.42 5.05 323.12"/>
      <polygon class="cls-1" points="10.1 323.12 10.1 348.37 25.25 348.37 25.25 323.12 20.2 323.12 20.2 343.32 15.15 343.32 15.15 323.12 10.1 323.12"/>
      <polygon class="cls-1" points="0 444.3 0 454.39 15.14 454.39 15.14 444.3 10.1 444.3 10.1 449.34 5.05 449.34 5.05 444.3 0 444.3"/>
      <polygon class="cls-1" points="35.35 444.3 30.3 444.3 30.3 474.59 5.05 474.59 5.05 464.49 25.24 464.49 25.25 444.3 20.2 444.3 20.2 459.44 0 459.44 0 479.64 35.35 479.64 35.35 444.3"/>
      <polygon class="cls-1" points="35.35 575.57 5.05 575.57 5.05 570.52 35.35 570.52 35.35 565.47 0 565.47 0 580.62 35.35 580.62 35.35 575.57"/>
      <polygon class="cls-1" points="35.35 585.67 0 585.66 0 590.71 30.3 590.71 30.3 595.76 0 595.76 0 600.81 35.35 600.81 35.35 585.67"/>
      <polygon class="cls-1" points="10.1 535.17 10.1 540.22 35.35 540.22 35.35 525.08 0 525.08 0 560.42 35.35 560.42 35.35 545.27 10.1 545.27 10.1 550.32 30.3 550.32 30.3 555.37 5.05 555.37 5.05 530.13 30.3 530.13 30.3 535.18 10.1 535.17"/>
      <polygon class="cls-1" points="35.35 605.86 0 605.86 0 641.2 5.05 641.2 5.05 610.91 30.3 610.91 30.3 641.2 35.35 641.2 35.35 605.86"/>
      <polygon class="cls-1" points="25.25 641.2 25.25 615.96 10.1 615.96 10.1 641.2 15.15 641.2 15.15 621.01 20.2 621.01 20.2 641.2 25.25 641.2"/>
      <polygon class="cls-1" points="35.35 509.93 20.21 509.93 20.21 520.03 25.25 520.03 25.25 514.98 30.3 514.98 30.3 520.03 35.35 520.03 35.35 509.93"/>
      <polygon class="cls-1" points="35.35 484.69 0 484.69 0 520.03 5.05 520.03 5.05 489.74 30.3 489.74 30.3 499.83 10.11 499.83 10.1 520.03 15.15 520.03 15.15 504.88 35.35 504.88 35.35 484.69"/>
      <polygon class="cls-1" points="0 913.84 30.31 913.84 30.31 918.88 0 918.88 0 923.93 35.35 923.93 35.35 908.79 0 908.79 0 913.84"/>
      <polygon class="cls-1" points="0 711.88 30.3 711.88 30.3 716.93 0 716.93 0 721.98 35.35 721.98 35.35 706.84 0 706.84 0 711.88"/>
      <polygon class="cls-1" points="0 701.79 35.35 701.79 35.35 696.74 5.05 696.74 5.05 691.69 35.35 691.69 35.35 686.64 0 686.64 0 701.79"/>
      <polygon class="cls-1" points="35.35 727.03 0 727.03 0 742.18 25.25 742.18 25.25 737.13 5.05 737.13 5.05 732.08 30.3 732.08 30.3 757.32 5.05 757.32 5.05 752.28 25.25 752.28 25.25 747.23 0 747.23 0 762.37 35.35 762.37 35.35 727.03"/>
      <polygon class="cls-1" points="0 646.25 0 681.59 35.35 681.59 35.35 646.25 30.3 646.25 30.3 676.54 5.05 676.54 5.05 646.25 0 646.25"/>
      <polygon class="cls-1" points="10.1 671.49 25.25 671.49 25.25 646.25 20.2 646.25 20.2 666.45 15.15 666.45 15.15 646.25 10.1 646.25 10.1 671.49"/>
      <polygon class="cls-1" points="0 767.42 0 777.52 15.14 777.52 15.14 767.42 10.1 767.42 10.1 772.47 5.05 772.47 5.05 767.42 0 767.42"/>
      <polygon class="cls-1" points="35.35 767.42 30.3 767.42 30.3 797.72 5.05 797.72 5.05 787.62 25.24 787.62 25.25 767.42 20.2 767.42 20.2 782.57 0 782.57 0 802.76 35.35 802.76 35.35 767.42"/>
      <polygon class="cls-1" points="0 903.74 35.35 903.74 35.35 898.69 5.05 898.69 5.05 893.64 35.35 893.64 35.35 888.59 0 888.59 0 903.74"/>
      <polygon class="cls-1" points="10.1 858.3 10.1 863.35 35.35 863.35 35.35 848.2 0 848.2 0 883.54 35.35 883.54 35.35 868.4 10.1 868.4 10.1 873.45 30.3 873.45 30.3 878.49 5.05 878.49 5.05 853.25 30.3 853.25 30.3 858.3 10.1 858.3"/>
      <polygon class="cls-1" points="35.35 833.05 20.21 833.05 20.21 843.15 25.25 843.15 25.25 838.1 30.3 838.1 30.3 843.15 35.35 843.15 35.35 833.05"/>
      <polygon class="cls-1" points="35.35 807.81 0 807.81 0 843.15 5.05 843.15 5.05 812.86 30.3 812.86 30.3 822.96 10.11 822.96 10.1 843.15 15.15 843.15 15.15 828.01 35.35 828.01 35.35 807.81"/>
      <polygon class="cls-1" points="35.34 964.33 35.34 954.23 20.2 954.23 20.2 964.33 25.25 964.33 25.25 959.28 30.3 959.28 30.3 964.33 35.34 964.33"/>
      <polygon class="cls-1" points="5.05 934.03 30.29 934.03 30.29 944.13 10.11 944.13 10.1 964.33 15.15 964.33 15.15 949.18 35.34 949.18 35.34 928.98 0 928.98 0 964.33 5.05 964.33 5.05 934.03"/>
      <polygon class="cls-1" points="35.34 1019.86 5.05 1019.86 5.05 1014.81 35.34 1014.81 35.34 1009.77 0 1009.77 0 1024.91 35.34 1024.91 35.34 1019.86"/>
      <polygon class="cls-1" points="35.34 1029.96 0 1029.96 0 1035.01 30.3 1035.01 30.3 1040.06 0 1040.06 0 1045.11 35.34 1045.11 35.34 1029.96"/>
      <polygon class="cls-1" points="35.34 989.57 10.1 989.57 10.1 994.62 30.29 994.62 30.29 999.67 5.05 999.67 5.05 974.42 30.29 974.42 30.29 979.47 10.1 979.47 10.1 984.52 35.34 984.52 35.34 969.37 0 969.37 0 1004.71 35.34 1004.71 35.34 989.57"/>
      <polygon class="cls-1" points="35.34 1085.5 35.34 1050.16 0 1050.16 0 1085.5 5.05 1085.5 5.05 1055.2 30.3 1055.2 30.3 1085.5 35.34 1085.5"/>
      <polygon class="cls-1" points="25.25 1085.5 25.25 1060.25 10.1 1060.25 10.1 1085.5 15.15 1085.5 15.15 1065.3 20.2 1065.3 20.2 1085.5 25.25 1085.5"/>
      <polygon class="cls-1" points="0 1257.16 30.29 1257.16 30.29 1282.4 0 1282.4 0 1287.45 35.34 1287.45 35.34 1252.11 0 1252.11 0 1257.16"/>
      <polygon class="cls-1" points="0 1272.31 0 1277.35 25.25 1277.35 25.25 1262.21 0 1262.21 0 1267.26 20.2 1267.26 20.2 1272.31 0 1272.31"/>
      <polygon class="cls-1" points="0 1166.28 35.35 1166.28 35.35 1161.23 5.05 1161.23 5.05 1156.18 35.35 1156.18 35.35 1151.13 0 1151.13 0 1166.28"/>
      <polygon class="cls-1" points="0 1135.99 30.3 1135.99 30.3 1141.03 0 1141.03 0 1146.08 35.35 1146.08 35.35 1130.94 0 1130.94 0 1135.99"/>
      <polygon class="cls-1" points="0 1206.67 35.35 1206.67 35.35 1191.52 10.1 1191.52 10.1 1196.57 30.3 1196.57 30.3 1201.62 5.05 1201.62 5.05 1176.37 30.3 1176.37 30.3 1181.42 10.1 1181.42 10.1 1186.47 35.35 1186.47 35.35 1171.33 0 1171.33 0 1206.67"/>
      <polygon class="cls-1" points="30.3 1120.84 5.05 1120.84 5.05 1090.54 0 1090.54 0 1125.89 35.35 1125.89 35.35 1090.54 30.3 1090.54 30.3 1120.84"/>
      <polygon class="cls-1" points="25.25 1090.54 20.2 1090.54 20.2 1110.74 15.15 1110.74 15.15 1090.54 10.1 1090.54 10.1 1115.79 25.25 1115.79 25.25 1090.54"/>
      <polygon class="cls-1" points="30.3 1216.77 25.25 1216.77 25.25 1211.72 20.21 1211.72 20.21 1221.82 35.35 1221.82 35.35 1211.72 30.3 1211.72 30.3 1216.77"/>
      <polygon class="cls-1" points="15.15 1211.72 10.1 1211.72 10.11 1231.91 30.3 1231.91 30.3 1242.01 5.05 1242.01 5.05 1211.72 0 1211.72 0 1247.06 35.35 1247.06 35.35 1226.86 15.15 1226.86 15.15 1211.72"/>
      <polygon class="cls-1" points="85.25 721.98 85.25 711.88 70.11 711.88 70.11 721.98 75.16 721.98 75.16 716.93 80.21 716.93 80.21 721.98 85.25 721.98"/>
      <polygon class="cls-1" points="49.91 721.98 54.96 721.98 54.96 691.69 80.2 691.69 80.2 701.79 60.02 701.79 60.01 721.98 65.06 721.98 65.06 706.83 85.25 706.83 85.25 686.64 49.91 686.64 49.91 721.98"/>
      <polygon class="cls-1" points="85.26 934.03 85.26 928.98 49.91 928.98 49.91 944.13 85.26 944.13 85.26 939.08 54.96 939.08 54.96 934.03 85.26 934.03"/>
      <polygon class="cls-1" points="85.26 949.18 49.91 949.18 49.91 954.23 80.21 954.23 80.21 959.28 49.91 959.28 49.91 964.33 85.26 964.33 85.26 949.18"/>
      <polygon class="cls-1" points="60.01 898.69 60.01 903.74 85.25 903.74 85.25 888.59 49.91 888.59 49.91 923.93 85.25 923.93 85.25 908.79 60.01 908.79 60.01 913.84 80.21 913.84 80.21 918.88 54.96 918.88 54.96 893.64 80.21 893.64 80.21 898.69 60.01 898.69"/>
      <polygon class="cls-1" points="85.26 969.37 49.91 969.37 49.91 1004.71 54.96 1004.71 54.96 974.42 80.21 974.42 80.21 1004.71 85.26 1004.71 85.26 969.37"/>
      <polygon class="cls-1" points="75.16 1004.71 75.16 979.47 60.01 979.47 60.01 1004.71 65.06 1004.71 65.06 984.52 70.11 984.52 70.11 1004.71 75.16 1004.71"/>
      <polygon class="cls-1" points="49.91 797.71 49.91 802.76 85.25 802.76 85.25 787.62 49.91 787.62 49.91 792.66 80.2 792.66 80.2 797.71 49.91 797.71"/>
      <polygon class="cls-1" points="49.91 782.57 85.25 782.57 85.25 777.52 54.95 777.52 54.95 772.47 85.25 772.47 85.25 767.42 49.91 767.42 49.91 782.57"/>
      <polygon class="cls-1" points="75.16 833.06 75.16 828.01 49.91 828.01 49.91 843.15 85.25 843.15 85.25 807.81 49.91 807.81 49.91 822.96 75.16 822.96 75.16 817.91 54.96 817.91 54.96 812.86 80.2 812.86 80.2 838.1 54.96 838.1 54.96 833.05 75.16 833.06"/>
      <polygon class="cls-1" points="49.91 762.37 85.25 762.37 85.25 727.03 80.2 727.03 80.2 757.32 54.96 757.32 54.96 727.03 49.91 727.03 49.91 762.37"/>
      <polygon class="cls-1" points="60.01 727.03 60.01 752.27 75.15 752.27 75.15 727.03 70.11 727.03 70.11 747.22 65.06 747.22 65.06 727.03 60.01 727.03"/>
      <polygon class="cls-1" points="49.91 858.3 65.05 858.3 65.05 848.2 60.01 848.2 60.01 853.25 54.96 853.25 54.96 848.2 49.91 848.2 49.91 858.3"/>
      <polygon class="cls-1" points="49.91 883.54 85.25 883.54 85.25 848.2 80.2 848.2 80.2 878.5 54.96 878.5 54.96 868.4 75.14 868.4 75.16 848.2 70.11 848.2 70.11 863.35 49.91 863.35 49.91 883.54"/>
      <polygon class="cls-1" points="49.91 621 85.25 621 85.26 615.96 54.96 615.96 54.96 610.91 85.26 610.91 85.26 605.86 49.91 605.86 49.91 621"/>
      <polygon class="cls-1" points="49.91 636.15 49.91 641.2 85.25 641.2 85.25 626.05 49.91 626.05 49.91 631.1 80.21 631.1 80.21 636.15 49.91 636.15"/>
      <polygon class="cls-1" points="49.91 600.81 85.25 600.81 85.25 585.66 60.01 585.66 60.01 590.71 80.21 590.71 80.21 595.76 54.96 595.76 54.96 570.52 80.21 570.52 80.21 575.57 60.01 575.56 60.01 580.62 85.25 580.62 85.25 565.47 49.91 565.47 49.91 600.81"/>
      <polygon class="cls-1" points="80.21 681.59 85.25 681.59 85.25 646.25 49.91 646.25 49.91 681.59 54.96 681.59 54.96 651.3 80.21 651.3 80.21 681.59"/>
      <polygon class="cls-1" points="75.16 681.59 75.16 656.35 60.01 656.35 60.01 681.59 65.06 681.59 65.06 661.4 70.11 661.4 70.11 681.59 75.16 681.59"/>
      <polygon class="cls-1" points="85.25 560.42 85.25 550.32 70.11 550.32 70.11 560.42 75.16 560.42 75.16 555.37 80.21 555.37 80.21 560.42 85.25 560.42"/>
      <polygon class="cls-1" points="49.91 560.42 54.96 560.42 54.96 530.13 80.2 530.13 80.21 540.22 60.02 540.22 60.01 560.42 65.06 560.42 65.06 545.27 85.25 545.27 85.25 525.08 49.91 525.08 49.91 560.42"/>
      <polygon class="cls-1" points="49.91 429.15 80.2 429.15 80.2 434.2 49.91 434.2 49.91 439.25 85.25 439.25 85.26 424.1 49.91 424.1 49.91 429.15"/>
      <polygon class="cls-1" points="49.91 419.05 85.25 419.05 85.25 414 54.95 414 54.95 408.95 85.26 408.95 85.26 403.9 49.91 403.9 49.91 419.05"/>
      <polygon class="cls-1" points="75.16 469.54 75.16 464.49 49.91 464.49 49.91 479.64 85.25 479.64 85.25 444.29 49.91 444.29 49.91 459.44 75.16 459.44 75.16 454.39 54.96 454.39 54.96 449.34 80.2 449.34 80.2 474.59 54.96 474.59 54.96 469.54 75.16 469.54"/>
      <polygon class="cls-1" points="54.96 363.51 49.91 363.51 49.91 398.85 85.25 398.85 85.25 363.51 80.2 363.51 80.2 393.81 54.96 393.81 54.96 363.51"/>
      <polygon class="cls-1" points="60.01 363.51 60.01 388.76 75.16 388.76 75.16 363.51 70.11 363.51 70.11 383.71 65.06 383.71 65.06 363.51 60.01 363.51"/>
      <polygon class="cls-1" points="49.91 494.78 65.05 494.78 65.05 484.68 60.01 484.68 60.01 489.73 54.96 489.73 54.96 484.68 49.91 484.68 49.91 494.78"/>
      <polygon class="cls-1" points="49.91 520.03 85.25 520.03 85.25 484.68 80.2 484.68 80.2 514.98 54.96 514.98 54.96 504.88 75.14 504.88 75.16 484.68 70.11 484.68 70.11 499.83 49.91 499.83 49.91 520.03"/>
      <polygon class="cls-1" points="85.25 90.88 54.95 90.88 54.95 85.83 85.25 85.83 85.25 80.78 49.91 80.78 49.91 95.93 85.25 95.93 85.25 90.88"/>
      <polygon class="cls-1" points="85.25 292.83 54.96 292.83 54.96 287.78 85.25 287.78 85.25 282.73 49.91 282.73 49.91 297.88 85.25 297.88 85.25 292.83"/>
      <polygon class="cls-1" points="85.25 302.93 49.91 302.93 49.91 307.98 80.21 307.98 80.21 313.02 49.91 313.02 49.91 318.07 85.25 318.07 85.25 302.93"/>
      <polygon class="cls-1" points="60.01 252.44 60.01 257.49 85.25 257.49 85.25 242.34 49.91 242.34 49.91 277.68 85.25 277.68 85.25 262.54 60.01 262.54 60.01 267.59 80.2 267.59 80.2 272.63 54.96 272.63 54.96 247.39 80.2 247.39 80.2 252.44 60.01 252.44"/>
      <polygon class="cls-1" points="85.25 323.12 49.91 323.12 49.91 358.46 54.96 358.46 54.96 328.17 80.2 328.17 80.2 358.46 85.25 358.46 85.25 323.12"/>
      <polygon class="cls-1" points="75.16 333.22 60.01 333.22 60.01 358.46 65.06 358.46 65.06 338.27 70.11 338.27 70.11 358.46 75.16 358.46 75.16 333.22"/>
      <polygon class="cls-1" points="85.25 227.19 70.11 227.19 70.11 237.29 75.16 237.29 75.16 232.24 80.2 232.24 80.2 237.29 85.25 237.29 85.25 227.19"/>
      <polygon class="cls-1" points="85.25 201.95 49.91 201.95 49.91 237.29 54.96 237.29 54.96 207 80.2 207 80.2 217.1 60.02 217.1 60.01 237.29 65.06 237.29 65.06 222.14 85.25 222.15 85.25 201.95"/>
      <polygon class="cls-1" points="85.25 100.98 49.91 100.98 49.91 106.02 80.2 106.02 80.2 111.07 49.91 111.07 49.91 116.12 85.25 116.12 85.25 100.98"/>
      <polygon class="cls-1" points="85.25 121.17 49.91 121.17 49.91 136.32 75.16 136.32 75.16 131.27 54.96 131.27 54.96 126.22 80.2 126.22 80.2 151.46 54.96 151.46 54.96 146.41 75.16 146.42 75.16 141.37 49.91 141.37 49.91 156.51 85.25 156.51 85.25 121.17"/>
      <polygon class="cls-1" points="49.91 161.56 49.91 171.66 65.05 171.66 65.05 161.56 60.01 161.56 60.01 166.61 54.96 166.61 54.96 161.56 49.91 161.56"/>
      <polygon class="cls-1" points="85.25 161.56 80.2 161.56 80.2 191.85 54.96 191.85 54.96 181.76 75.14 181.76 75.16 161.56 70.11 161.56 70.11 176.71 49.91 176.71 49.91 196.9 85.25 196.9 85.25 161.56"/>
      <polygon class="cls-1" points="65.05 40.39 60.01 40.39 60.01 45.44 54.96 45.44 54.96 40.39 49.91 40.39 49.91 50.49 65.05 50.49 65.05 40.39"/>
      <polygon class="cls-1" points="80.21 70.68 54.96 70.68 54.96 60.58 75.15 60.58 75.16 40.39 70.11 40.39 70.11 55.54 49.91 55.54 49.91 75.73 85.26 75.73 85.26 40.39 80.21 40.39 80.21 70.68"/>
      <polygon class="cls-1" points="49.91 0 49.91 15.15 75.16 15.15 75.16 10.1 54.96 10.1 54.96 5.05 80.21 5.05 80.21 30.29 54.96 30.29 54.96 25.24 75.16 25.24 75.16 20.19 49.91 20.19 49.91 35.34 85.26 35.34 85.26 0 49.91 0"/>
      <polygon class="cls-1" points="49.91 1277.35 80.2 1277.35 80.2 1282.4 49.91 1282.4 49.91 1287.45 85.26 1287.45 85.26 1272.31 49.91 1272.31 49.91 1277.35"/>
      <polygon class="cls-1" points="49.91 1267.26 85.25 1267.26 85.25 1262.21 54.95 1262.21 54.95 1257.16 85.26 1257.16 85.26 1252.11 49.91 1252.11 49.91 1267.26"/>
      <polygon class="cls-1" points="49.91 1211.72 49.91 1247.06 85.25 1247.06 85.25 1211.72 80.2 1211.72 80.2 1242.01 54.96 1242.01 54.96 1211.72 49.91 1211.72"/>
      <polygon class="cls-1" points="60.01 1211.72 60.01 1236.97 75.16 1236.97 75.16 1211.72 70.11 1211.72 70.11 1231.91 65.06 1231.91 65.06 1211.72 60.01 1211.72"/>
      <polygon class="cls-1" points="85.25 1009.77 80.21 1009.77 80.21 1040.06 54.96 1040.06 54.96 1009.77 49.91 1009.77 49.91 1045.11 85.25 1045.11 85.25 1009.77"/>
      <polygon class="cls-1" points="60.01 1035.01 75.15 1035.01 75.15 1009.77 70.11 1009.77 70.11 1029.96 65.05 1029.96 65.05 1009.77 60.01 1009.77 60.01 1035.01"/>
      <polygon class="cls-1" points="85.25 1130.94 49.91 1130.94 49.91 1135.99 80.2 1135.99 80.2 1141.04 49.91 1141.04 49.91 1146.08 85.25 1146.08 85.25 1130.94"/>
      <polygon class="cls-1" points="85.25 1161.23 54.95 1161.23 54.95 1156.18 85.25 1156.18 85.25 1151.13 49.91 1151.14 49.91 1166.28 85.25 1166.28 85.25 1161.23"/>
      <polygon class="cls-1" points="75.15 1115.79 75.15 1110.74 49.91 1110.74 49.91 1125.89 85.25 1125.89 85.25 1090.55 49.91 1090.55 49.91 1105.69 75.15 1105.69 75.15 1100.64 54.96 1100.64 54.96 1095.6 80.2 1095.6 80.2 1120.84 54.96 1120.84 54.96 1115.79 75.15 1115.79"/>
      <polygon class="cls-1" points="54.96 1176.38 80.2 1176.38 80.2 1206.67 85.25 1206.67 85.25 1171.33 49.91 1171.33 49.91 1206.67 54.96 1206.67 54.96 1176.38"/>
      <polygon class="cls-1" points="60.01 1206.67 65.06 1206.67 65.06 1186.48 70.1 1186.48 70.1 1206.67 75.15 1206.67 75.15 1181.43 60.01 1181.43 60.01 1206.67"/>
      <polygon class="cls-1" points="65.05 1085.5 65.05 1075.4 49.91 1075.4 49.91 1085.5 54.96 1085.5 54.96 1080.45 60.01 1080.45 60.01 1085.5 65.05 1085.5"/>
      <polygon class="cls-1" points="85.25 1050.16 49.91 1050.16 49.91 1070.35 70.11 1070.35 70.11 1085.5 75.15 1085.5 75.14 1065.3 54.96 1065.3 54.96 1055.21 80.2 1055.21 80.2 1085.5 85.25 1085.5 85.25 1050.16"/>
    </g>
  </g>
</svg>