<?xml version="1.0" encoding="UTF-8"?>
<svg id="Capa_2" data-name="Capa 2" xmlns="http://www.w3.org/2000/svg" xmlns:xlink="http://www.w3.org/1999/xlink" viewBox="0 0 1920 330.89">
  <defs>
    <style>
      .cls-1 {
        fill: #fff;
      }

      .cls-2 {
        fill: none;
      }

      .cls-3 {
        filter: url(#drop-shadow-1);
      }

      .cls-4 {
        clip-path: url(#clippath);
      }
    </style>
    <filter id="drop-shadow-1" x="-8.69" y="-8.8" width="1951" height="362" filterUnits="userSpaceOnUse">
      <feOffset dx="7" dy="7"/>
      <feGaussianBlur result="blur" stdDeviation="5"/>
      <feFlood flood-color="#000" flood-opacity=".75"/>
      <feComposite in2="blur" operator="in"/>
      <feComposite in="SourceGraphic"/>
    </filter>
    <clipPath id="clippath">
      <path class="cls-2" d="M0,6.33v324.57h1920V6.33H0ZM1320.15,245.43h-720.3V91.79h720.3v153.64Z"/>
    </clipPath>
  </defs>
  <g id="Capa_2-2" data-name="Capa 2">
    <g class="cls-3">
      <g>
        <polygon class="cls-1" points="869.47 18.85 878.27 36.54 897.81 39.44 883.71 53.27 886.99 72.75 869.47 63.62 851.96 72.75 855.23 53.27 841.13 39.44 860.67 36.54 869.47 18.85"/>
        <polygon class="cls-1" points="960 0 968.8 17.69 988.34 20.59 974.24 34.42 977.51 53.9 960 44.77 942.49 53.9 945.76 34.42 931.66 20.59 951.2 17.69 960 0"/>
        <polygon class="cls-1" points="1050.53 18.85 1059.33 36.54 1078.87 39.44 1064.77 53.27 1068.04 72.75 1050.53 63.62 1033.01 72.75 1036.29 53.27 1022.19 39.44 1041.73 36.54 1050.53 18.85"/>
      </g>
      <g class="cls-4">
        <g>
          <polygon class="cls-1" points="1497.57 105.14 1482.53 105.14 1482.53 127.68 1497.57 127.68 1497.57 120.17 1490.05 120.17 1490.05 112.65 1497.57 112.65 1497.57 105.14"/>
          <polygon class="cls-1" points="1497.57 157.77 1497.57 150.25 1452.46 150.25 1452.46 112.66 1467.5 112.66 1467.5 142.71 1497.57 142.73 1497.57 135.21 1475.01 135.21 1475.01 105.14 1444.94 105.14 1444.94 157.77 1497.57 157.77"/>
          <polygon class="cls-1" points="1828.38 157.77 1828.38 105.13 1820.86 105.13 1820.86 150.24 1813.35 150.24 1813.35 105.13 1805.83 105.13 1805.83 157.77 1828.38 157.77"/>
          <polygon class="cls-1" points="1843.42 157.76 1843.42 112.64 1850.94 112.64 1850.94 157.77 1858.46 157.77 1858.46 105.13 1835.9 105.13 1835.9 157.76 1843.42 157.76"/>
          <polygon class="cls-1" points="1760.72 142.73 1768.24 142.73 1768.24 105.14 1745.68 105.14 1745.68 157.77 1798.31 157.77 1798.31 105.14 1775.75 105.14 1775.75 142.73 1783.27 142.73 1783.27 112.65 1790.79 112.65 1790.79 150.25 1753.2 150.25 1753.2 112.65 1760.72 112.65 1760.72 142.73"/>
          <polygon class="cls-1" points="1918.6 157.76 1918.6 150.24 1873.49 150.24 1873.49 112.65 1918.6 112.65 1918.6 105.13 1865.97 105.13 1865.97 157.76 1918.6 157.76"/>
          <polygon class="cls-1" points="1918.6 142.72 1918.6 135.21 1888.53 135.21 1888.53 127.69 1918.6 127.69 1918.6 120.17 1881.01 120.17 1881.01 142.72 1918.6 142.72"/>
          <polygon class="cls-1" points="1610.35 157.77 1617.87 157.77 1617.87 105.14 1595.31 105.14 1595.31 157.77 1602.83 157.77 1602.83 112.66 1610.35 112.66 1610.35 157.77"/>
          <polygon class="cls-1" points="1587.79 157.77 1587.79 105.14 1580.27 105.14 1580.27 150.26 1572.75 150.26 1572.75 105.14 1565.24 105.14 1565.24 157.77 1587.79 157.77"/>
          <polygon class="cls-1" points="1662.98 120.17 1655.46 120.17 1655.46 157.77 1678.01 157.77 1678.01 105.14 1625.38 105.14 1625.38 157.77 1647.94 157.77 1647.94 120.17 1640.42 120.17 1640.42 150.25 1632.9 150.25 1632.9 112.66 1670.5 112.66 1670.5 150.25 1662.98 150.25 1662.98 120.17"/>
          <polygon class="cls-1" points="1557.72 157.77 1557.72 105.14 1505.09 105.14 1505.09 112.66 1550.2 112.66 1550.2 150.25 1505.09 150.25 1505.09 157.77 1557.72 157.77"/>
          <polygon class="cls-1" points="1505.09 142.73 1542.68 142.73 1542.68 120.18 1505.09 120.18 1505.09 127.69 1535.16 127.69 1535.16 135.21 1505.09 135.21 1505.09 142.73"/>
          <polygon class="cls-1" points="1700.57 157.77 1700.57 135.22 1685.53 135.22 1685.53 142.73 1693.05 142.73 1693.05 150.25 1685.53 150.25 1685.53 157.77 1700.57 157.77"/>
          <polygon class="cls-1" points="1738.16 157.77 1738.16 105.14 1685.53 105.14 1685.53 112.66 1730.64 112.66 1730.64 150.25 1715.61 150.25 1715.61 120.19 1685.53 120.17 1685.53 127.69 1708.09 127.69 1708.09 157.77 1738.16 157.77"/>
          <polygon class="cls-1" points="1347.2 157.77 1347.2 105.13 1339.69 105.13 1339.69 150.24 1332.17 150.24 1332.17 105.13 1324.65 105.13 1324.65 157.77 1347.2 157.77"/>
          <polygon class="cls-1" points="1369.76 157.77 1377.28 157.77 1377.28 105.13 1354.72 105.13 1354.72 157.76 1362.24 157.76 1362.24 112.64 1369.76 112.64 1369.76 157.77"/>
          <polygon class="cls-1" points="1317.13 157.77 1317.13 105.14 1294.57 105.14 1294.57 142.73 1302.09 142.73 1302.09 112.65 1309.61 112.65 1309.61 150.25 1272.02 150.25 1272.02 112.65 1279.54 112.65 1279.53 142.73 1287.06 142.73 1287.06 105.14 1264.5 105.14 1264.5 157.77 1317.13 157.77"/>
          <polygon class="cls-1" points="1437.42 112.65 1437.42 105.13 1384.79 105.13 1384.79 157.76 1437.43 157.76 1437.43 150.24 1392.31 150.24 1392.31 112.65 1437.42 112.65"/>
          <polygon class="cls-1" points="1437.43 120.17 1399.83 120.17 1399.83 142.73 1437.43 142.73 1437.43 135.21 1407.35 135.21 1407.35 127.69 1437.43 127.69 1437.43 120.17"/>
          <polygon class="cls-1" points="1256.98 105.14 1241.94 105.14 1241.94 127.68 1256.98 127.68 1256.98 120.17 1249.46 120.17 1249.46 112.65 1256.98 112.65 1256.98 105.14"/>
          <polygon class="cls-1" points="1256.98 157.77 1256.98 150.25 1211.87 150.25 1211.87 112.65 1226.91 112.65 1226.91 142.71 1256.98 142.73 1256.98 135.21 1234.43 135.21 1234.43 105.14 1204.35 105.14 1204.35 157.77 1256.98 157.77"/>
          <polygon class="cls-1" points="1061.5 157.77 1061.5 112.66 1069.02 112.66 1069.02 157.77 1076.54 157.77 1076.54 105.13 1053.98 105.13 1053.98 157.77 1061.5 157.77"/>
          <polygon class="cls-1" points="1046.46 157.77 1046.46 105.14 1038.94 105.14 1038.94 150.26 1031.42 150.26 1031.42 105.13 1023.91 105.13 1023.91 157.77 1046.46 157.77"/>
          <polygon class="cls-1" points="1121.65 120.17 1114.13 120.17 1114.13 157.77 1136.68 157.77 1136.68 105.14 1084.05 105.14 1084.05 157.77 1106.61 157.77 1106.61 120.17 1099.09 120.17 1099.09 150.25 1091.57 150.25 1091.57 112.65 1129.16 112.65 1129.16 150.25 1121.65 150.25 1121.65 120.17"/>
          <polygon class="cls-1" points="1016.39 157.77 1016.39 105.14 963.76 105.14 963.76 112.66 1008.87 112.66 1008.87 150.25 963.76 150.25 963.76 157.77 1016.39 157.77"/>
          <polygon class="cls-1" points="963.76 142.73 1001.35 142.73 1001.35 120.17 963.76 120.17 963.76 127.69 993.83 127.69 993.83 135.21 963.76 135.21 963.76 142.73"/>
          <polygon class="cls-1" points="1159.24 157.77 1159.24 135.22 1144.2 135.22 1144.2 142.73 1151.72 142.73 1151.72 150.25 1144.2 150.25 1144.2 157.77 1159.24 157.77"/>
          <polygon class="cls-1" points="1196.83 157.77 1196.83 105.14 1144.2 105.14 1144.2 112.65 1189.31 112.65 1189.31 150.25 1174.28 150.25 1174.28 120.19 1144.2 120.17 1144.2 127.69 1166.76 127.69 1166.76 157.77 1196.83 157.77"/>
          <polygon class="cls-1" points="557.76 105.14 557.76 150.26 550.25 150.26 550.25 105.14 542.73 105.14 542.73 157.77 565.28 157.77 565.29 105.14 557.76 105.14"/>
          <polygon class="cls-1" points="858.5 105.14 858.5 150.25 850.98 150.25 850.98 105.14 843.46 105.14 843.46 157.77 866.02 157.77 866.02 105.14 858.5 105.14"/>
          <polygon class="cls-1" points="873.54 105.14 873.53 157.77 881.05 157.77 881.05 112.64 888.57 112.64 888.57 157.77 896.09 157.77 896.09 105.14 873.54 105.14"/>
          <polygon class="cls-1" points="835.94 157.77 835.94 105.14 813.39 105.14 813.39 142.73 820.91 142.73 820.91 112.66 828.43 112.66 828.43 150.25 790.84 150.25 790.84 112.66 798.35 112.66 798.35 142.73 805.87 142.73 805.87 105.14 783.32 105.14 783.32 157.77 835.94 157.77"/>
          <polygon class="cls-1" points="956.24 105.14 903.61 105.14 903.61 157.77 956.24 157.77 956.24 150.25 911.13 150.25 911.13 112.65 956.24 112.65 956.24 105.14"/>
          <polygon class="cls-1" points="918.65 120.17 918.65 142.73 956.24 142.73 956.24 135.21 926.17 135.21 926.17 127.69 956.24 127.69 956.24 120.17 918.65 120.17"/>
          <polygon class="cls-1" points="775.8 105.14 760.76 105.14 760.76 127.68 775.8 127.68 775.8 120.17 768.28 120.17 768.28 112.65 775.8 112.65 775.8 105.14"/>
          <polygon class="cls-1" points="775.8 157.77 775.8 150.25 730.68 150.25 730.68 112.66 745.72 112.66 745.72 142.71 775.8 142.73 775.8 135.21 753.24 135.21 753.24 105.14 723.17 105.14 723.17 157.77 775.8 157.77"/>
          <polygon class="cls-1" points="572.8 105.14 572.8 157.77 580.32 157.77 580.32 112.66 587.84 112.66 587.84 157.77 595.36 157.77 595.36 105.14 572.8 105.14"/>
          <polygon class="cls-1" points="640.47 120.17 632.95 120.17 632.95 157.77 655.5 157.77 655.5 105.14 602.88 105.14 602.88 157.77 625.43 157.77 625.43 120.17 617.91 120.17 617.91 150.25 610.39 150.25 610.39 112.66 647.99 112.66 647.99 150.25 640.47 150.25 640.47 120.17"/>
          <polygon class="cls-1" points="678.06 157.77 678.06 135.22 663.02 135.22 663.02 142.73 670.54 142.73 670.54 150.25 663.02 150.25 663.02 157.77 678.06 157.77"/>
          <polygon class="cls-1" points="715.65 157.77 715.65 105.14 663.02 105.14 663.02 112.66 708.13 112.66 708.13 150.25 693.1 150.25 693.1 120.19 663.02 120.17 663.02 127.69 685.58 127.69 685.58 157.77 715.65 157.77"/>
          <polygon class="cls-1" points="482.58 157.76 497.62 157.76 497.62 135.22 482.58 135.22 482.58 142.72 490.1 142.72 490.1 150.25 482.58 150.25 482.58 157.76"/>
          <polygon class="cls-1" points="527.69 112.65 527.69 150.24 512.65 150.24 512.65 120.19 482.58 120.17 482.58 127.69 505.13 127.69 505.13 157.76 535.21 157.76 535.21 105.13 482.58 105.13 482.58 112.65 527.69 112.65"/>
          <polygon class="cls-1" points="399.88 157.76 399.88 112.65 407.39 112.65 407.39 157.76 414.91 157.76 414.91 105.13 392.36 105.13 392.36 157.76 399.88 157.76"/>
          <polygon class="cls-1" points="384.84 157.76 384.84 105.13 377.32 105.13 377.32 150.26 369.8 150.26 369.8 105.13 362.28 105.13 362.28 157.76 384.84 157.76"/>
          <polygon class="cls-1" points="444.99 157.76 444.99 120.17 437.47 120.17 437.47 150.24 429.95 150.24 429.95 112.65 467.54 112.65 467.54 150.24 460.02 150.24 460.02 120.17 452.51 120.17 452.51 157.76 475.06 157.76 475.06 105.13 422.43 105.13 422.43 157.76 444.99 157.76"/>
          <polygon class="cls-1" points="302.14 157.76 354.77 157.76 354.77 105.13 302.14 105.13 302.14 112.65 347.25 112.65 347.25 150.24 302.14 150.24 302.14 157.76"/>
          <polygon class="cls-1" points="302.14 142.73 339.73 142.73 339.73 120.17 302.14 120.17 302.14 127.69 332.21 127.69 332.21 135.21 302.14 135.21 302.14 142.73"/>
          <polygon class="cls-1" points="46.51 105.13 46.51 150.24 8.91 150.24 8.91 105.13 1.4 105.13 1.4 157.76 54.03 157.76 54.03 105.13 46.51 105.13"/>
          <polygon class="cls-1" points="23.95 105.13 16.43 105.13 16.43 142.73 38.99 142.73 38.99 105.13 31.47 105.13 31.47 135.21 23.95 135.21 23.95 105.13"/>
          <polygon class="cls-1" points="181.84 105.13 181.84 157.77 189.36 157.77 189.36 112.66 196.88 112.66 196.88 157.77 204.4 157.77 204.4 105.13 181.84 105.13"/>
          <polygon class="cls-1" points="226.95 105.13 226.95 150.26 219.43 150.26 219.43 105.14 211.91 105.14 211.92 157.77 234.47 157.77 234.47 105.13 226.95 105.13"/>
          <polygon class="cls-1" points="121.69 105.14 121.69 157.77 144.25 157.77 144.25 120.17 136.73 120.17 136.73 150.25 129.21 150.25 129.21 112.65 166.81 112.65 166.81 150.25 159.29 150.25 159.29 120.17 151.77 120.17 151.77 157.77 174.32 157.77 174.32 105.14 121.69 105.14"/>
          <polygon class="cls-1" points="249.51 150.25 249.51 112.66 294.62 112.66 294.62 105.14 241.99 105.14 241.99 157.77 294.62 157.77 294.62 150.25 249.51 150.25"/>
          <polygon class="cls-1" points="294.62 142.73 294.62 135.21 264.55 135.21 264.55 127.69 294.62 127.69 294.62 120.17 257.02 120.17 257.02 142.73 294.62 142.73"/>
          <polygon class="cls-1" points="106.65 150.25 106.65 142.73 114.18 142.73 114.18 135.22 99.14 135.22 99.14 157.77 114.18 157.77 114.18 150.25 106.65 150.25"/>
          <polygon class="cls-1" points="114.18 127.69 114.18 120.17 84.1 120.19 84.1 150.25 69.06 150.25 69.06 112.65 114.18 112.65 114.18 105.14 61.55 105.14 61.55 157.77 91.62 157.77 91.62 127.69 114.18 127.69"/>
          <polygon class="cls-1" points="843.46 232.08 858.5 232.08 858.5 209.54 843.46 209.54 843.46 217.05 850.98 217.05 850.98 224.57 843.46 224.57 843.46 232.08"/>
          <polygon class="cls-1" points="843.46 179.46 843.46 186.97 888.58 186.97 888.58 224.57 873.54 224.57 873.54 194.51 843.46 194.49 843.46 202.01 866.02 202.01 866.02 232.08 896.1 232.08 896.1 179.46 843.46 179.46"/>
          <polygon class="cls-1" points="527.69 232.09 535.21 232.09 535.21 179.46 512.65 179.46 512.65 232.09 520.17 232.09 520.17 186.98 527.69 186.98 527.69 232.09"/>
          <polygon class="cls-1" points="505.13 232.09 505.14 179.46 497.62 179.46 497.62 224.58 490.1 224.58 490.1 179.46 482.58 179.46 482.58 232.09 505.13 232.09"/>
          <polygon class="cls-1" points="580.32 194.5 572.8 194.5 572.8 232.09 595.36 232.09 595.36 179.46 542.73 179.46 542.73 232.09 565.28 232.09 565.28 194.5 557.76 194.5 557.76 224.57 550.25 224.57 550.25 186.98 587.84 186.98 587.84 224.57 580.32 224.57 580.32 194.5"/>
          <polygon class="cls-1" points="475.06 232.09 475.06 179.46 422.43 179.46 422.43 186.98 467.54 186.98 467.54 224.57 422.43 224.57 422.43 232.09 475.06 232.09"/>
          <polygon class="cls-1" points="422.43 217.05 460.03 217.05 460.03 194.5 422.43 194.5 422.43 202.02 452.51 202.02 452.51 209.53 422.43 209.53 422.43 217.05"/>
          <polygon class="cls-1" points="730.69 179.46 723.17 179.46 723.17 232.09 745.73 232.09 745.73 179.46 738.21 179.46 738.21 224.57 730.69 224.57 730.69 179.46"/>
          <polygon class="cls-1" points="753.25 179.46 753.24 232.08 760.76 232.08 760.76 186.96 768.28 186.96 768.28 232.09 775.8 232.09 775.8 179.46 753.25 179.46"/>
          <polygon class="cls-1" points="678.06 217.05 685.58 217.05 685.58 179.46 663.02 179.46 663.02 232.08 715.65 232.08 715.65 179.46 693.1 179.46 693.1 217.05 700.62 217.05 700.62 186.98 708.13 186.98 708.13 224.57 670.54 224.57 670.54 186.98 678.06 186.98 678.06 217.05"/>
          <polygon class="cls-1" points="783.32 179.46 783.32 232.08 835.95 232.08 835.95 224.57 790.84 224.57 790.84 186.97 835.95 186.97 835.95 179.46 783.32 179.46"/>
          <polygon class="cls-1" points="835.95 194.49 798.35 194.49 798.35 217.05 835.95 217.05 835.95 209.53 805.87 209.53 805.87 202.01 835.95 202.01 835.95 194.49"/>
          <polygon class="cls-1" points="640.47 179.46 640.47 202 655.5 202 655.5 194.49 647.99 194.49 647.99 186.97 655.5 186.97 655.5 179.46 640.47 179.46"/>
          <polygon class="cls-1" points="602.87 179.46 602.87 232.08 655.5 232.08 655.5 224.57 610.39 224.57 610.39 186.98 625.43 186.98 625.43 217.03 655.5 217.05 655.5 209.53 632.95 209.53 632.95 179.46 602.87 179.46"/>
          <polygon class="cls-1" points="993.83 179.46 993.83 232.09 1001.35 232.09 1001.35 186.98 1008.87 186.98 1008.87 232.09 1016.39 232.09 1016.39 179.46 993.83 179.46"/>
          <polygon class="cls-1" points="971.28 179.46 963.76 179.46 963.76 232.09 986.31 232.09 986.32 179.46 978.8 179.46 978.8 224.58 971.28 224.58 971.28 179.46"/>
          <polygon class="cls-1" points="1023.91 179.46 1023.91 232.09 1046.46 232.09 1046.46 194.49 1038.94 194.49 1038.94 224.57 1031.43 224.57 1031.43 186.98 1069.02 186.98 1069.02 224.57 1061.5 224.57 1061.5 194.49 1053.98 194.49 1053.98 232.09 1076.54 232.09 1076.54 179.46 1023.91 179.46"/>
          <polygon class="cls-1" points="903.61 224.57 903.61 232.09 956.24 232.09 956.24 179.46 903.61 179.46 903.61 186.98 948.72 186.98 948.72 224.57 903.61 224.57"/>
          <polygon class="cls-1" points="903.61 217.05 941.21 217.05 941.21 194.5 903.61 194.5 903.61 202.01 933.69 202.01 933.69 209.53 903.61 209.53 903.61 217.05"/>
          <polygon class="cls-1" points="1084.06 232.09 1099.09 232.09 1099.09 209.54 1084.06 209.54 1084.06 217.05 1091.57 217.05 1091.57 224.57 1084.06 224.57 1084.06 232.09"/>
          <polygon class="cls-1" points="1084.06 179.46 1084.06 186.98 1129.17 186.98 1129.17 224.57 1114.13 224.57 1114.13 194.51 1084.06 194.49 1084.06 202.01 1106.61 202.01 1106.61 232.09 1136.68 232.09 1136.68 179.46 1084.06 179.46"/>
          <polygon class="cls-1" points="1279.54 179.46 1279.54 224.57 1272.02 224.57 1272.02 179.46 1264.5 179.46 1264.5 232.09 1287.06 232.09 1287.06 179.46 1279.54 179.46"/>
          <polygon class="cls-1" points="1294.58 179.46 1294.57 232.08 1302.09 232.08 1302.09 186.96 1309.61 186.96 1309.61 232.09 1317.13 232.09 1317.13 179.46 1294.58 179.46"/>
          <polygon class="cls-1" points="1219.39 217.05 1226.91 217.05 1226.91 179.46 1204.35 179.46 1204.35 232.09 1256.98 232.09 1256.98 179.46 1234.43 179.46 1234.43 217.05 1241.95 217.05 1241.95 186.98 1249.46 186.98 1249.46 224.57 1211.87 224.57 1211.87 186.98 1219.39 186.98 1219.39 217.05"/>
          <polygon class="cls-1" points="1377.28 186.97 1377.28 179.46 1324.65 179.46 1324.65 232.08 1377.28 232.08 1377.28 224.57 1332.17 224.57 1332.17 186.97 1377.28 186.97"/>
          <polygon class="cls-1" points="1377.28 194.49 1339.69 194.49 1339.69 217.05 1377.28 217.05 1377.28 209.53 1347.2 209.53 1347.2 202.01 1377.28 202.01 1377.28 194.49"/>
          <polygon class="cls-1" points="1181.8 179.46 1181.8 202 1196.84 202 1196.84 194.5 1189.32 194.5 1189.32 186.97 1196.84 186.97 1196.84 179.46 1181.8 179.46"/>
          <polygon class="cls-1" points="1144.21 179.46 1144.21 232.09 1196.84 232.09 1196.84 224.57 1151.73 224.57 1151.73 186.98 1166.76 186.98 1166.76 217.03 1196.84 217.05 1196.84 209.53 1174.28 209.53 1174.28 179.46 1144.21 179.46"/>
          <polygon class="cls-1" points="1783.27 232.08 1783.27 186.96 1790.79 186.96 1790.79 232.09 1798.31 232.09 1798.31 179.45 1775.76 179.45 1775.75 232.08 1783.27 232.08"/>
          <polygon class="cls-1" points="1482.54 232.08 1482.54 186.98 1490.06 186.98 1490.06 232.08 1497.57 232.08 1497.57 179.45 1475.02 179.45 1475.02 232.08 1482.54 232.08"/>
          <polygon class="cls-1" points="1467.5 232.08 1467.5 179.46 1459.98 179.46 1459.98 224.58 1452.46 224.58 1452.46 179.45 1444.94 179.45 1444.94 232.08 1467.5 232.08"/>
          <polygon class="cls-1" points="1542.68 194.49 1535.17 194.49 1535.17 232.08 1557.72 232.08 1557.72 179.46 1505.09 179.46 1505.09 232.08 1527.65 232.08 1527.65 194.49 1520.13 194.49 1520.13 224.57 1512.61 224.57 1512.61 186.97 1550.2 186.97 1550.2 224.57 1542.68 224.57 1542.68 194.49"/>
          <polygon class="cls-1" points="1437.43 232.08 1437.43 179.46 1384.8 179.46 1384.8 186.98 1429.91 186.98 1429.91 224.57 1384.8 224.57 1384.8 232.08 1437.43 232.08"/>
          <polygon class="cls-1" points="1422.39 217.05 1422.39 194.49 1384.8 194.49 1384.8 202.01 1414.87 202.01 1414.87 209.53 1384.8 209.53 1384.8 217.05 1422.39 217.05"/>
          <polygon class="cls-1" points="1580.28 232.08 1580.28 209.54 1565.24 209.54 1565.24 217.05 1572.76 217.05 1572.76 224.57 1565.24 224.57 1565.24 232.08 1580.28 232.08"/>
          <polygon class="cls-1" points="1617.87 232.08 1617.87 179.46 1565.24 179.46 1565.24 186.97 1610.35 186.97 1610.35 224.57 1595.31 224.57 1595.31 194.51 1565.24 194.49 1565.24 202.01 1587.8 202.01 1587.8 232.08 1617.87 232.08"/>
          <polygon class="cls-1" points="1768.24 232.09 1768.24 179.45 1760.72 179.45 1760.72 224.57 1753.2 224.57 1753.2 179.45 1745.68 179.45 1745.68 232.08 1768.24 232.09"/>
          <polygon class="cls-1" points="1738.16 232.08 1738.16 179.46 1715.6 179.46 1715.6 217.05 1723.12 217.05 1723.12 186.97 1730.64 186.97 1730.64 224.57 1693.05 224.57 1693.05 186.97 1700.57 186.97 1700.57 217.05 1708.09 217.05 1708.09 179.46 1685.53 179.46 1685.53 232.08 1738.16 232.08"/>
          <polygon class="cls-1" points="1678.01 179.46 1662.98 179.46 1662.98 202 1678.01 202 1678.01 194.49 1670.5 194.49 1670.5 186.97 1678.01 186.97 1678.01 179.46"/>
          <polygon class="cls-1" points="1678.01 232.08 1678.01 224.57 1632.9 224.57 1632.9 186.97 1647.94 186.97 1647.94 217.03 1678.01 217.05 1678.01 209.53 1655.46 209.53 1655.46 179.46 1625.39 179.46 1625.39 232.08 1678.01 232.08"/>
          <polygon class="cls-1" points="1858.46 202.01 1858.46 194.5 1850.94 194.5 1850.94 186.98 1858.46 186.98 1858.46 179.46 1843.42 179.46 1843.42 202.01 1858.46 202.01"/>
          <polygon class="cls-1" points="1813.35 224.57 1813.35 186.98 1828.38 186.98 1828.38 217.04 1858.46 217.05 1858.46 209.53 1835.9 209.53 1835.9 179.46 1805.83 179.46 1805.83 232.09 1858.46 232.09 1858.46 224.57 1813.35 224.57"/>
          <polygon class="cls-1" points="1918.6 179.46 1896.05 179.46 1896.05 217.05 1903.57 217.05 1903.57 186.98 1911.09 186.98 1911.09 224.57 1873.5 224.57 1873.5 186.98 1881.01 186.98 1881.01 217.05 1888.53 217.05 1888.53 179.46 1865.97 179.46 1865.97 232.09 1918.6 232.09 1918.6 179.46"/>
          <polygon class="cls-1" points="16.43 179.46 16.43 224.57 8.91 224.57 8.91 179.46 1.4 179.46 1.4 232.09 23.95 232.09 23.95 179.46 16.43 179.46"/>
          <polygon class="cls-1" points="31.47 179.46 31.46 232.09 38.99 232.09 38.99 186.96 46.5 186.96 46.5 232.09 54.03 232.09 54.03 179.46 31.47 179.46"/>
          <polygon class="cls-1" points="114.17 179.46 61.54 179.46 61.54 232.09 114.17 232.09 114.17 224.57 69.06 224.57 69.06 186.97 114.17 186.97 114.17 179.46"/>
          <polygon class="cls-1" points="114.17 194.49 76.58 194.49 76.58 217.05 114.17 217.05 114.17 209.53 84.1 209.53 84.1 202.01 114.17 202.01 114.17 194.49"/>
          <polygon class="cls-1" points="414.91 232.09 414.91 224.57 369.8 224.57 369.8 186.97 414.91 186.97 414.91 179.46 362.28 179.46 362.28 232.09 414.91 232.09"/>
          <polygon class="cls-1" points="377.32 194.49 377.32 217.05 414.91 217.05 414.91 209.53 384.84 209.53 384.84 202.01 414.91 202.01 414.91 194.49 377.32 194.49"/>
          <polygon class="cls-1" points="234.47 232.09 234.47 179.45 226.95 179.45 226.95 224.56 219.43 224.56 219.43 179.45 211.91 179.45 211.91 232.09 234.47 232.09"/>
          <polygon class="cls-1" points="189.36 232.09 189.36 186.96 196.87 186.96 196.87 232.08 204.4 232.08 204.39 179.45 181.84 179.45 181.84 232.09 189.36 232.09"/>
          <polygon class="cls-1" points="257.02 217.05 264.54 217.05 264.54 179.45 241.99 179.45 241.99 232.08 294.61 232.08 294.61 179.45 272.06 179.45 272.06 217.05 279.58 217.05 279.58 186.97 287.1 186.97 287.1 224.57 249.5 224.57 249.5 186.97 257.02 186.97 257.02 217.05"/>
          <polygon class="cls-1" points="166.8 186.97 166.8 224.56 121.69 224.56 121.69 232.08 174.32 232.08 174.32 179.45 121.69 179.45 121.69 186.97 166.8 186.97"/>
          <polygon class="cls-1" points="121.69 194.49 121.69 202.01 151.76 202.01 151.76 209.53 121.69 209.53 121.69 217.05 159.28 217.05 159.28 194.49 121.69 194.49"/>
          <polygon class="cls-1" points="302.13 202 317.17 202 317.17 179.45 302.13 179.45 302.13 186.97 309.65 186.97 309.65 194.49 302.13 194.49 302.13 202"/>
          <polygon class="cls-1" points="354.76 232.08 354.76 179.45 324.69 179.45 324.69 209.53 302.13 209.53 302.13 217.05 332.21 217.03 332.21 186.97 347.24 186.97 347.24 224.57 302.13 224.57 302.13 232.08 354.76 232.08"/>
        </g>
      </g>
      <g>
        <polygon class="cls-1" points="677.35 171.73 694 171.73 694 121.79 727.23 121.79 727.23 138.43 710.6 138.43 710.6 155.08 743.86 155.08 743.86 105.14 677.35 105.14 677.35 171.73"/>
        <path class="cls-1" d="M760.48,171.73h16.63v-16.65h33.25v16.65h16.63v-66.59h-66.51v66.59ZM777.11,121.79h33.25v16.65h-33.25v-16.65Z"/>
        <path class="cls-1" d="M1009.88,171.74h16.63v-16.65h33.25v16.65h16.63v-66.59h-66.51v66.59ZM1026.51,121.79h33.25v16.65h-33.25v-16.65Z"/>
        <path class="cls-1" d="M1176.14,171.74h16.63v-16.65h33.25v16.65h16.63v-66.59h-66.51v66.59ZM1192.77,121.79h33.25v16.65h-33.25v-16.65Z"/>
        <polygon class="cls-1" points="843.61 155.08 843.61 171.73 910.12 171.73 910.12 130.11 860.24 130.11 860.24 121.79 910.12 121.79 910.12 105.14 843.61 105.14 843.61 146.76 893.49 146.76 893.49 155.08 843.61 155.08"/>
        <polygon class="cls-1" points="926.75 171.74 993.25 171.74 993.25 155.07 943.37 155.07 943.37 121.79 993.25 121.79 993.25 105.15 926.75 105.15 926.75 171.74"/>
        <polygon class="cls-1" points="1093.01 171.73 1109.64 171.73 1109.64 121.79 1142.89 121.79 1142.89 171.74 1159.52 171.73 1159.52 105.14 1093.01 105.14 1093.01 171.73"/>
        <polygon class="cls-1" points="861.21 215.81 830.8 215.81 830.8 201.81 828.54 201.81 828.54 232.09 830.8 232.09 830.8 218.08 861.21 218.08 861.21 232.09 863.48 232.09 863.48 201.81 861.21 201.81 861.21 215.81"/>
        <path class="cls-1" d="M897.22,232.09h22.67v-20.94h-22.67v20.94ZM899.62,213.41h17.87v16.41h-17.87v-16.41Z"/>
        <polygon class="cls-1" points="956.1 201.81 953.7 201.81 953.7 232.09 976.37 232.09 976.37 229.82 956.1 229.82 956.1 213.41 976.37 213.41 976.37 211.15 956.1 211.15 956.1 201.81"/>
        <polygon class="cls-1" points="1009.84 232.09 1032.51 232.09 1032.51 229.82 1012.24 229.82 1012.24 213.41 1030.12 213.41 1030.12 221.62 1032.51 221.62 1032.51 211.15 1009.84 211.15 1009.84 232.09"/>
        <rect class="cls-1" x="1066.26" y="201.81" width="2.4" height="30.28"/>
      </g>
    </g>
  </g>
</svg>