<?xml version="1.0" encoding="UTF-8"?>
<svg id="Capa_2" data-name="Capa 2" xmlns="http://www.w3.org/2000/svg" viewBox="0 0 565.3 232.09">
  <defs>
    <style>
      .cls-1 {
        fill: #fff;
      }
    </style>
  </defs>
  <g id="Capa_2-2" data-name="Capa 2">
    <g>
      <g>
        <polygon class="cls-1" points="192.12 18.85 200.92 36.54 220.46 39.44 206.36 53.27 209.64 72.75 192.12 63.62 174.61 72.75 177.89 53.27 163.78 39.44 183.32 36.54 192.12 18.85"/>
        <polygon class="cls-1" points="282.65 0 291.45 17.69 310.99 20.59 296.89 34.42 300.17 53.9 282.65 44.77 265.14 53.9 268.41 34.42 254.31 20.59 273.85 17.69 282.65 0"/>
        <polygon class="cls-1" points="373.18 18.85 381.98 36.54 401.52 39.44 387.42 53.27 390.69 72.75 373.18 63.62 355.66 72.75 358.94 53.27 344.84 39.44 364.38 36.54 373.18 18.85"/>
      </g>
      <g>
        <polygon class="cls-1" points="0 171.73 16.65 171.73 16.65 121.79 49.88 121.79 49.88 138.43 33.25 138.43 33.25 155.08 66.51 155.08 66.51 105.14 0 105.14 0 171.73"/>
        <path class="cls-1" d="M83.13,171.73h16.63v-16.65h33.25v16.65h16.63v-66.59h-66.51v66.59ZM99.76,121.79h33.25v16.65h-33.25v-16.65Z"/>
        <path class="cls-1" d="M332.53,171.74h16.63v-16.65h33.25v16.65h16.63v-66.59h-66.51v66.59ZM349.16,121.79h33.25v16.65h-33.25v-16.65Z"/>
        <path class="cls-1" d="M498.79,171.74h16.63v-16.65h33.25v16.65h16.63v-66.59h-66.51v66.59ZM515.42,121.79h33.25v16.65h-33.25v-16.65Z"/>
        <polygon class="cls-1" points="166.26 155.08 166.26 171.73 232.77 171.73 232.77 130.11 182.89 130.11 182.89 121.79 232.77 121.79 232.77 105.14 166.26 105.14 166.26 146.76 216.14 146.76 216.14 155.08 166.26 155.08"/>
        <polygon class="cls-1" points="249.4 171.74 315.9 171.74 315.9 155.07 266.02 155.07 266.02 121.79 315.9 121.79 315.9 105.15 249.4 105.15 249.4 171.74"/>
        <polygon class="cls-1" points="415.66 171.73 432.29 171.73 432.29 121.79 465.54 121.79 465.54 171.74 482.17 171.73 482.17 105.14 415.66 105.14 415.66 171.73"/>
        <polygon class="cls-1" points="183.86 215.81 153.45 215.81 153.45 201.81 151.19 201.81 151.19 232.09 153.45 232.09 153.45 218.08 183.86 218.08 183.86 232.09 186.13 232.09 186.13 201.81 183.86 201.81 183.86 215.81"/>
        <path class="cls-1" d="M219.87,232.09h22.67v-20.94h-22.67v20.94ZM222.27,213.41h17.87v16.41h-17.87v-16.41Z"/>
        <polygon class="cls-1" points="278.75 201.81 276.35 201.81 276.35 232.09 299.02 232.09 299.02 229.82 278.75 229.82 278.75 213.41 299.02 213.41 299.02 211.15 278.75 211.15 278.75 201.81"/>
        <polygon class="cls-1" points="332.49 232.09 355.16 232.09 355.16 229.82 334.89 229.82 334.89 213.41 352.77 213.41 352.77 221.62 355.16 221.62 355.16 211.15 332.49 211.15 332.49 232.09"/>
        <rect class="cls-1" x="388.91" y="201.81" width="2.4" height="30.28"/>
      </g>
    </g>
  </g>
</svg>